<?xml version="1.0" encoding="UTF-8"?>
<svg width="166px" height="197px" viewBox="0 0 166 197" version="1.1" xmlns="http://www.w3.org/2000/svg" xmlns:xlink="http://www.w3.org/1999/xlink">
    <!-- Generator: Sketch 52.6 (67491) - http://www.bohemiancoding.com/sketch -->
    <title>Logo redkendi Copy</title>
    <desc>Created with Sketch.</desc>
    <defs>
        <polygon id="path-1" points="4.32815449 1.99162895 31.7079 1.99162895 31.7079 89.8268293 4.32815449 89.8268293"></polygon>
    </defs>
    <g id="Desktop-Alt-2" stroke="none" stroke-width="1" fill="none" fill-rule="evenodd">
        <g id="Artboard" transform="translate(-69.000000, -22.000000)">
            <g id="Logo-redkendi-White" transform="translate(69.000000, 22.000000)">
                <g id="Group-3" stroke-width="1" transform="translate(798.700000, 74.193659)">
                    <mask id="mask-2" fill="white">
                        <use xlink:href="#path-1"></use>
                    </mask>
                    <g id="Clip-2"></g>
                    <path d="M31.70937,89.8268293 C27.34347,89.3195122 22.95307,88.9682927 18.62147,88.2512195 C14.71127,87.6073171 10.97257,86.3195122 7.77777,83.8317073 C5.47967,82.0268293 4.32327,79.7097561 4.32817,76.7439024 C4.35267,52.3487805 4.33797,27.9536585 4.33797,3.55853659 C4.33797,1.8902439 4.33797,1.94390244 6.05787,2.02195122 C11.21757,2.23170732 16.31357,2.85121951 21.27237,4.36829268 C22.41897,4.72439024 23.54597,5.16341463 24.64847,5.64146341 C27.87267,7.04146341 30.43047,9.13902439 31.70937,12.5292683 L31.70937,89.8268293 Z" id="Fill-1" fill="#FFFFFF" mask="url(#mask-2)"></path>
                </g>
                <path d="M14.16737,54.5643902 C60.01667,61.735122 105.72877,61.744878 151.55847,54.54 C150.47557,56.1204878 149.41717,57.5936585 148.43227,59.1204878 C145.86467,63.0912195 145.90387,63.1253659 148.96147,66.6619512 C154.73857,73.3643902 159.52097,80.6912195 162.50017,89.0717073 C166.98857,101.661951 166.43977,114.169268 161.69657,126.559512 C157.81577,136.700976 151.83777,145.574146 144.70827,153.69122 C141.18027,157.710732 137.36317,161.466829 133.61467,165.286341 C133.04627,165.866829 132.20837,166.31561 131.40967,166.530244 C121.93797,169.100976 112.29477,170.735122 102.52417,171.725366 C93.73847,172.608293 84.93807,172.91561 76.12297,172.603415 C61.63367,172.100976 47.34527,170.11561 33.36067,166.208293 C32.90007,166.076585 32.42967,165.827805 32.08667,165.496098 C21.82607,155.808293 12.70717,145.242439 6.42047,132.496098 C1.86347,123.266829 -0.54243,113.569268 0.10437,103.242439 C0.64337,94.6765854 3.36777,86.7497561 7.60137,79.3058537 C10.50707,74.2034146 14.01057,69.5302439 17.93547,65.1839024 C19.16537,63.8131707 19.31727,62.5156098 18.38627,61.037561 C17.20047,59.144878 15.95587,57.2960976 14.73577,55.4278049 C14.56427,55.1643902 14.39277,54.9058537 14.16737,54.5643902" id="Fill-4" fill="#FFFFFF"></path>
                <path d="M401.71229,145.28 C401.74169,144.850732 401.76619,144.684878 401.76619,144.52878 C401.76619,131.684878 401.78579,118.850732 401.75149,106.011707 C401.74659,103.806829 401.02139,101.767805 399.60529,100.050732 C396.23899,95.9531707 391.74569,94.3873171 386.56639,94.6165854 C382.85219,94.777561 379.97589,96.4897561 378.51569,99.9239024 C377.72189,101.787317 377.07999,103.88 377.04079,105.875122 C376.88399,115.10439 376.94769,124.343415 376.96239,133.582439 C376.96239,134.567805 377.09959,135.562927 377.24659,136.538537 C377.98649,141.499512 381.00489,144.821463 385.95389,145.616585 C388.75179,146.070244 391.65749,146.109268 394.50439,146.050732 C396.90049,146.006829 399.28189,145.562927 401.71229,145.28 M402.55509,80.0556098 C400.98219,65.9921951 402.10919,51.9531707 401.77599,37.9531707 C401.77109,37.7921951 401.80049,37.6312195 401.83479,37.2214634 C403.94179,37.3336585 406.04389,37.3726829 408.12639,37.577561 C412.26689,37.977561 416.36819,38.684878 420.20979,40.3434146 C421.87089,41.0653659 423.50259,41.9629268 424.94809,43.0409756 C427.74109,45.1190244 429.17679,47.9531707 429.17679,51.48 C429.17189,88.9970732 429.17189,126.519024 429.17189,164.040976 C429.17189,164.201951 429.15719,164.362927 429.14739,164.533659 C427.38339,163.92878 425.67819,163.177561 423.88969,162.758049 C419.59729,161.753171 415.21179,161.709268 410.86549,162.162927 C404.63759,162.816585 398.45869,163.982439 392.22099,164.489756 C388.23239,164.811707 384.16539,164.52878 380.16699,164.167805 C374.80149,163.68 369.61729,162.309268 364.78589,159.870244 C355.11329,154.977561 349.87519,147.099512 349.56649,136.323902 C349.28719,126.187317 349.38519,116.036098 349.41459,105.899512 C349.46849,89.5921951 360.48369,80.8263415 371.88109,77.3336585 C382.29359,74.1434146 392.44639,74.5629268 402.15819,79.8995122 C402.29539,79.9726829 402.45219,80.0165854 402.55509,80.0556098" id="Fill-6" fill="#FFFFFF"></path>
                <path d="M761.80496,124.872195 C761.80496,118.628293 761.79026,112.369756 761.81476,106.120976 C761.81966,104.018537 761.23656,102.096585 759.99196,100.438049 C756.76286,96.1356098 752.25976,94.5014634 747.03146,94.5990244 C743.11636,94.6770732 740.06856,96.4039024 738.56426,100.042927 C737.72636,102.062439 737.11876,104.330732 737.07956,106.496585 C736.91786,115.564878 736.93746,124.628293 737.04526,133.696585 C737.08936,137.169756 737.83906,140.540488 740.60756,143.057561 C743.18006,145.394146 746.40426,146.125854 749.71666,146.11122 C753.32306,146.106341 756.91966,145.647805 760.52116,145.442927 C761.52566,145.379512 761.83436,145.003902 761.82946,143.994146 C761.78536,137.623415 761.80496,131.252683 761.80496,124.872195 M762.81926,79.955122 C762.69676,79.164878 762.53996,78.3795122 762.45176,77.5843902 C762.22146,75.5697561 761.84416,73.555122 761.83436,71.5404878 C761.77556,60.4868293 761.80496,49.4234146 761.80496,38.3746341 L761.80496,37.3160976 C762.78496,37.3160976 763.72576,37.262439 764.65186,37.3209756 C770.77686,37.6721951 776.81856,38.4331707 782.37026,41.2965854 C785.61896,42.9746341 788.19636,45.3112195 788.99506,49.062439 C789.21066,50.0673171 789.25476,51.1160976 789.25476,52.1502439 C789.26456,89.1746341 789.26456,126.194146 789.26456,163.218537 L789.26456,164.403902 C786.94196,163.740488 784.76146,162.901463 782.50746,162.496585 C777.68096,161.633171 772.80546,161.813659 767.96916,162.394146 C763.14266,162.974634 758.36026,163.828293 753.54356,164.442927 C747.88406,165.164878 742.25396,164.647805 736.67286,163.657561 C731.31716,162.716098 726.21136,161.013659 721.63476,157.999024 C714.68166,153.428293 710.79596,146.974634 709.85516,138.764878 C709.68366,137.242927 709.61996,135.71122 709.61506,134.179512 C709.59056,124.945366 709.67386,115.706341 709.58566,106.477073 C709.45336,93.5697561 715.57836,84.555122 727.07376,79.2819512 C738.66226,73.9697561 750.43206,73.6526829 761.98136,79.755122 C762.16266,79.8526829 762.35376,79.9209756 762.54486,79.9990244 C762.57916,80.0136585 762.62816,79.9843902 762.81926,79.955122" id="Fill-8" fill="#FFFFFF"></path>
                <path d="M442.96,36.8243902 C445.9196,37.0780488 448.6832,37.2243902 451.4321,37.5707317 C455.9352,38.1414634 460.3697,39.0585366 464.4318,41.2 C467.1856,42.6634146 469.5033,44.5560976 470.1991,47.804878 C470.351,48.5170732 470.3657,49.2829268 470.3657,50.0243902 C470.3706,68.204878 470.3706,86.3902439 470.3706,104.570732 L470.3706,106.2 C472.2669,105.536585 473.6683,104.395122 474.9668,103.136585 C478.3821,99.8487805 480.8321,95.8536585 483.189,91.8 C484.463,89.6195122 485.7027,87.4195122 486.8689,85.1804878 C489.6864,79.8 494.2728,76.9902439 500.1871,76.3756098 C506.9589,75.6731707 513.6131,76.5317073 520.1497,78.3560976 C520.3506,78.4097561 520.5319,78.5121951 520.8455,78.6439024 C520.3898,79.2731707 519.9145,79.8341463 519.5421,80.4536585 C516.0484,86.2243902 512.54,91.995122 509.0953,97.7902439 C505.9201,103.131707 502.4117,108.190244 497.4235,112.043902 C495.733,113.35122 493.9004,114.502439 492.0237,115.795122 C492.4157,115.990244 492.7979,116.195122 493.1948,116.365854 C503.9062,120.926829 511.4767,128.590244 516.2836,139.121951 C519.5764,146.346341 523.0848,153.468293 526.4903,160.643902 C526.5589,160.785366 526.5736,160.95122 526.6422,161.22439 C521.0317,162.302439 515.5437,163.931707 509.8107,163.907317 C502.6273,163.878049 497.2716,160.707317 494.165,154.17561 C492.3912,150.443902 490.8379,146.604878 489.1425,142.839024 C485.6488,135.092683 480.0236,129.712195 471.6936,127.370732 C471.3016,127.263415 470.9047,127.170732 470.3902,127.039024 L470.3902,163.956098 C468.734,163.873171 467.1709,163.84878 465.6176,163.707317 C460.9822,163.287805 456.3615,162.673171 451.9907,160.985366 C450.2561,160.317073 448.5558,159.482927 447.0074,158.468293 C444.2683,156.663415 442.9257,154.107317 442.9306,150.712195 C442.9894,127.312195 442.96,103.912195 442.96,80.5121951 L442.96,38.6390244 L442.96,36.8243902 Z" id="Fill-10" fill="#FFFFFF"></path>
                <path d="M565.80496,113.262927 C567.64736,113.087317 568.89196,113.019024 570.12186,112.843415 C574.99736,112.150732 577.70216,109.33122 577.98636,104.599512 C578.04516,103.662927 577.92756,102.697073 577.77076,101.770244 C577.25136,98.584878 575.64416,96.1117073 572.43956,95.2434146 C570.51876,94.7263415 568.42646,94.6190244 566.41746,94.6678049 C562.32596,94.7702439 559.40066,97.175122 558.23446,101.092195 C557.24466,104.389756 557.29856,107.784878 557.37206,111.170244 C557.37696,111.482439 557.92576,111.984878 558.27856,112.048293 C560.96866,112.536098 563.66366,112.926341 565.80496,113.262927 M557.45536,129.409268 C556.68606,137.838537 560.20426,143.399512 569.35256,144.594634 C576.72706,145.560488 583.94966,144.614146 590.78516,141.501951 C593.97016,140.048293 596.83666,138.077561 598.67906,135.058049 C599.75216,133.301951 600.33526,131.253171 601.14376,129.33122 C601.41326,129.716585 601.86406,130.33122 602.27566,130.965366 C604.53456,134.443415 606.32796,138.121463 606.64156,142.316585 C607.11196,148.560488 604.34346,153.360488 599.59046,157.150732 C594.74926,160.999512 589.07506,162.984878 583.05786,163.897073 C572.02306,165.570244 561.08626,165.00439 550.42876,161.482439 C543.62756,159.233659 537.84066,155.511707 533.94026,149.316585 C531.16686,144.921463 529.96636,140.053171 529.93206,134.921463 C529.86346,125.272683 529.91246,115.619024 529.91246,105.965366 C529.91246,92.7360976 536.61076,83.1263415 549.09106,78.5360976 C556.94576,75.6482927 565.10426,75.0336585 573.39506,75.4678049 C578.60866,75.7409756 583.70956,76.5604878 588.58996,78.4873171 C598.29196,82.3360976 603.74566,89.4190244 604.94126,99.7458537 C605.50966,104.599512 605.31856,109.414146 603.83386,114.111707 C601.83466,120.409268 597.81666,125.121463 591.79456,127.794634 C581.71036,132.267805 571.21456,133.033659 560.48846,130.423902 C559.49376,130.18 558.54316,129.775122 557.45536,129.409268" id="Fill-12" fill="#FFFFFF"></path>
                <path d="M300.2524,113.362927 C300.272,113.309268 300.2867,113.25561 300.3014,113.201951 C301.5411,113.089756 302.7857,113.016585 304.0156,112.845854 C308.6951,112.192195 311.3803,109.548293 311.8164,105.070244 C311.9291,103.92878 311.8164,102.748293 311.6155,101.621463 C311.0128,98.2312195 309.1704,95.7531707 305.6914,95.0653659 C303.6187,94.6507317 301.3843,94.5726829 299.2871,94.8165854 C295.47,95.2458537 293.1229,97.5873171 292.0694,101.240976 C291.1237,104.509268 291.1678,107.85561 291.2266,111.201951 C291.2315,111.494634 291.7264,111.972683 292.0449,112.03122 C294.7742,112.519024 297.5084,112.92878 300.2524,113.362927 M291.354,129.387317 C290.5504,137.040976 293.4953,142.762927 301.5803,144.28 C310.1847,145.894634 318.5588,144.743415 326.3596,140.606829 C329.8092,138.777561 332.5826,136.172683 333.9448,132.377561 C334.3025,131.377561 334.4838,130.314146 334.7582,129.236098 C334.7827,129.240976 334.9346,129.23122 334.9836,129.294634 C337.4189,132.636098 339.4573,136.192195 340.2462,140.289756 C341.4516,146.558049 339.423,151.797073 334.768,156.05561 C330.3531,160.089756 324.9778,162.201951 319.2203,163.465366 C312.081,165.036098 304.8731,165.001951 297.6407,164.289756 C292.1184,163.758049 286.7235,162.650732 281.603,160.470244 C274.2432,157.343415 268.5396,152.494634 265.6241,144.845854 C264.3109,141.397073 263.8062,137.801951 263.7866,134.148293 C263.7376,124.748293 263.718,115.343415 263.7866,105.943415 C263.8356,97.9970732 266.0798,90.8458537 271.9941,85.1921951 C276.5315,80.8556098 282.0538,78.3434146 288.1053,76.9873171 C298.3953,74.684878 308.7098,74.582439 318.9361,77.3190244 C325.5609,79.0897561 331.1763,82.4458537 334.9738,88.3385366 C337.2866,91.9190244 338.4871,95.8995122 338.9036,100.109268 C339.3936,105.133659 339.1535,110.114146 337.4336,114.923902 C334.8464,122.148293 329.5789,126.626341 322.4886,129.177561 C317.7944,130.865366 312.914,131.489756 307.9552,131.767805 C302.2908,132.089756 296.7685,131.533659 291.354,129.387317" id="Fill-14" fill="#FFFFFF"></path>
                <path d="M645.13302,164.177561 C641.18362,163.709268 637.39592,163.343415 633.63272,162.787317 C629.92342,162.236098 626.33172,161.206829 623.04872,159.314146 C620.56442,157.884878 618.53582,156.045854 617.90862,153.094634 C617.79102,152.533659 617.73222,151.948293 617.73222,151.372683 C617.72242,126.153171 617.72732,100.92878 617.72732,75.7043902 L617.72732,74.9434146 C618.91802,75.4214634 620.00092,75.8995122 621.11812,76.284878 C629.21292,79.1385366 637.42042,79.4604878 645.76512,77.4507317 C651.42462,76.08 657.13312,75.0214634 663.01312,75.3726829 C670.02502,75.7921951 676.89482,76.7921951 683.25012,80.0068293 C692.27102,84.5678049 697.06812,91.9970732 697.24942,101.958049 C697.52382,117.236098 697.36702,132.519024 697.38662,147.801951 C697.39642,152.645854 697.38662,157.494634 697.38662,162.338537 L697.38662,164.001951 C695.13262,163.821463 693.03052,163.70439 690.94802,163.465366 C686.10192,162.923902 681.30482,162.099512 676.88012,159.958049 C675.26312,159.177561 673.75882,158.08 672.38192,156.909268 C670.64732,155.440976 669.96622,153.406829 669.96622,151.143415 C669.97112,136.397073 669.98092,121.650732 669.94662,106.909268 C669.94662,105.426341 669.87802,103.914146 669.58892,102.465366 C668.75592,98.284878 666.01682,95.8312195 661.53332,95.1629268 C656.22662,94.3678049 651.01302,95.2946341 645.81412,96.2019512 C645.54462,96.2556098 645.28002,96.7190244 645.15752,97.0409756 C645.04482,97.3287805 645.13302,97.6946341 645.13302,98.0214634 L645.13302,162.138537 L645.13302,164.177561 Z" id="Fill-16" fill="#FFFFFF"></path>
                <path d="M195.62515,74.9053659 C196.55125,75.3102439 197.38425,75.6614634 198.19765,76.0370732 C204.81265,79.0712195 211.62365,79.315122 218.65025,77.7346341 C225.12805,76.2712195 231.66465,75.0078049 238.37765,75.3882927 C243.39035,75.6760976 248.28055,76.5102439 252.70525,79.0712195 C258.25205,82.2858537 260.89805,87.9639024 260.01605,94.3297561 C259.08015,101.017561 255.65015,106.276098 250.88735,110.837073 C250.76975,110.949268 250.63255,111.046829 250.49045,111.134634 C250.43165,111.178537 250.33855,111.159024 250.26505,111.163902 C250.05435,109.739512 249.95635,108.290732 249.61825,106.905366 C248.09435,100.710244 243.73825,97.5102439 237.79945,96.1785366 C233.11505,95.1297561 228.39145,95.3736585 223.71685,96.3882927 C223.41795,96.4565854 223.12395,96.9053659 222.98185,97.2419512 C222.85935,97.52 222.95245,97.8956098 222.95245,98.2273171 L222.95245,162.324878 L222.95245,163.993171 C221.38445,163.900488 219.90955,163.846829 218.43955,163.72 C212.87805,163.246829 207.35575,162.49561 202.27935,160.007805 C200.62805,159.202927 199.11395,158.037073 197.74685,156.807805 C196.24745,155.461463 195.57125,153.612683 195.57125,151.56878 C195.56635,126.393171 195.56635,101.222439 195.57125,76.0419512 C195.57125,75.72 195.60065,75.4029268 195.62515,74.9053659" id="Fill-18" fill="#FFFFFF"></path>
                <path d="M150.78819,48.3478049 C105.45829,55.46 60.12839,55.4697561 14.80339,48.3380488 C14.76909,48.157561 14.73479,47.9819512 14.71029,47.8014634 C17.46899,46.962439 20.18849,45.9380488 22.99619,45.3282927 C27.28859,44.3917073 31.65449,43.7868293 35.96159,42.962439 C36.80929,42.7917073 37.73049,42.4063415 38.36259,41.8502439 C48.05479,33.2063415 59.31989,27.855122 72.13339,25.66 C73.10359,25.4892683 74.28939,25.3380488 74.95579,24.7282927 C77.25389,22.6160976 76.98929,17.5721951 74.57849,15.5770732 C73.71609,14.8746341 72.66749,14.4112195 71.79039,13.7185366 C70.09499,12.4014634 68.39959,11.06 66.84139,9.59170732 C65.80749,8.61121951 65.91039,7.80146341 66.93939,6.80634146 C70.12439,3.73317073 74.11299,2.10878049 78.24369,0.757560976 C81.47279,-0.296097561 84.69699,-0.227804878 87.91139,0.811219512 C91.36589,1.92341463 94.66359,3.35756098 97.60359,5.51853659 C97.80449,5.66487805 98.01029,5.81121951 98.20139,5.97219512 C100.32309,7.74780488 100.44069,8.6404878 98.36799,10.4356098 C96.64809,11.9136585 94.79589,13.2843902 92.87019,14.4697561 C90.60639,15.86 89.28829,17.6014634 89.56269,20.3478049 C89.71459,21.9185366 89.18049,23.6502439 90.67499,24.86 C91.06699,25.1819512 91.56189,25.4990244 92.05189,25.5819512 C105.21329,27.5770732 116.77729,33.0014634 126.77819,41.7234146 C127.67979,42.5136585 128.64019,42.8112195 129.77209,43.0258537 C135.26989,44.0746341 140.76279,45.1282927 146.23119,46.3039024 C147.82369,46.6356098 149.32309,47.3770732 150.86659,47.9331707 C150.84209,48.064878 150.81269,48.2112195 150.78819,48.3478049" id="Fill-20" fill="#FFFFFF"></path>
                <path d="M32.03473,171.40878 C65.90843,180.223415 99.67923,180.238049 133.53333,171.413659 C135.26793,174.56 135.45903,177.774634 133.95963,181.023415 C131.63703,186.042927 127.62393,189.340488 122.67003,191.574634 C118.62263,193.399024 114.29103,194.199024 109.92513,194.789268 C96.65103,196.589268 83.28383,196.155122 69.95093,195.930732 C62.23833,195.799024 54.52083,195.174634 47.03853,193.052683 C41.61423,191.520976 36.94943,188.80878 33.52923,184.238049 C30.57453,180.286829 29.61903,176.096585 32.03473,171.40878" id="Fill-22" fill="#FFFFFF"></path>
                <path d="M803.49759,45.2419512 L806.00639,45.2419512 C811.11709,45.2419512 816.23269,45.2517073 821.34829,45.2370732 C823.84239,45.2321951 825.95919,46.1590244 827.75259,47.8321951 C829.02169,49.0078049 829.68809,50.417561 829.65869,52.2321951 C829.58519,57.1004878 829.63419,61.9882927 829.63419,66.9736585 C829.15889,66.9931707 828.75709,67.0321951 828.36019,67.0321951 C823.20049,67.0370732 818.05059,67.0370732 812.89579,67.0370732 C810.44089,67.0370732 808.09869,66.6126829 806.05539,65.1443902 C804.36489,63.924878 803.46329,62.3395122 803.48289,60.1931707 C803.53189,55.2809756 803.49759,50.3541463 803.49759,45.2419512" id="Fill-24" fill="#FFFFFF"></path>
            </g>
        </g>
    </g>
</svg>