<?xml version="1.0" encoding="UTF-8"?>
<svg width="147px" height="175px" viewBox="0 0 147 175" version="1.1" xmlns="http://www.w3.org/2000/svg" xmlns:xlink="http://www.w3.org/1999/xlink">
    <!-- Generator: Sketch 52.5 (67469) - http://www.bohemiancoding.com/sketch -->
    <title>kendi-full-03</title>
    <desc>Created with Sketch.</desc>
    <defs>
        <polygon id="path-1" points="0.06 0.148247896 146.944317 0.148247896 146.944317 174.94 0.06 174.94"></polygon>
    </defs>
    <g id="kendi-full-03" stroke="none" stroke-width="1" fill="none" fill-rule="evenodd">
        <mask id="mask-2" fill="white">
            <use xlink:href="#path-1"></use>
        </mask>
        <g id="Clip-2"></g>
        <path d="M12.572,48.79 C12.772,49.094 12.925,49.325 13.077,49.555 C14.16,51.225 15.264,52.877 16.316,54.56 C17.143,55.873 17.008,57.035 15.917,58.252 C12.434,62.135 9.324,66.297 6.745,70.846 C2.988,77.481 0.57,84.543 0.092,92.183 C-0.481,101.385 1.653,110.034 5.697,118.262 C11.276,129.62 19.373,139.038 28.475,147.679 C28.779,147.971 29.197,148.197 29.605,148.309 C42.017,151.801 54.696,153.562 67.555,154.015 C75.378,154.289 83.187,154.023 90.984,153.232 C99.655,152.349 108.213,150.897 116.619,148.605 C117.328,148.41 118.071,148.01 118.576,147.492 C121.902,144.087 125.29,140.734 128.421,137.156 C134.748,129.92 140.053,122.005 143.497,112.965 C147.706,101.92 148.197,90.775 144.215,79.556 C141.566,72.085 137.326,65.553 132.195,59.574 C129.481,56.417 129.447,56.395 131.726,52.847 C132.6,51.49 133.539,50.177 134.5,48.772 C93.828,55.186 53.262,55.182 12.572,48.79" id="Fill-1" fill="#8A2627" mask="url(#mask-2)"></path>
        <path d="M133.816,43.246 C133.838,43.124 133.864,42.998 133.887,42.876 C132.517,42.381 131.186,41.724 129.772,41.424 C124.92,40.376 120.045,39.436 115.166,38.506 C114.166,38.315 113.31,38.045 112.509,37.341 C103.634,29.565 93.371,24.734 81.691,22.952 C81.256,22.882 80.817,22.595 80.47,22.308 C79.143,21.229 79.617,19.686 79.482,18.285 C79.238,15.842 80.408,14.285 82.417,13.046 C84.126,11.989 85.771,10.771 87.296,9.454 C89.136,7.853 89.031,7.054 87.148,5.475 C86.979,5.331 86.801,5.197 86.622,5.066 C84.009,3.144 81.082,1.861 78.017,0.87 C75.164,-0.056 72.303,-0.113 69.437,0.827 C65.771,2.027 62.231,3.475 59.405,6.219 C58.492,7.105 58.4,7.828 59.318,8.702 C60.701,10.01 62.205,11.198 63.71,12.38 C64.488,12.993 65.424,13.407 66.185,14.037 C68.324,15.816 68.559,20.312 66.52,22.195 C65.928,22.738 64.88,22.873 64.015,23.021 C52.643,24.978 42.646,29.748 34.045,37.453 C33.483,37.954 32.666,38.297 31.914,38.445 C28.092,39.184 24.217,39.723 20.408,40.554 C17.916,41.098 15.503,42.011 13.055,42.759 C13.076,42.915 13.106,43.077 13.137,43.237 C53.36,49.595 93.589,49.586 133.816,43.246" id="Fill-3" fill="#8A2627" mask="url(#mask-2)"></path>
        <path d="M28.43,152.95 C26.285,157.129 27.134,160.864 29.756,164.382 C32.791,168.461 36.931,170.879 41.74,172.244 C48.385,174.136 55.233,174.692 62.078,174.806 C73.91,175.01 85.769,175.401 97.554,173.792 C101.428,173.266 105.271,172.553 108.863,170.927 C113.26,168.931 116.821,165.995 118.883,161.521 C120.213,158.624 120.044,155.755 118.504,152.954 C88.461,160.816 58.49,160.808 28.43,152.95" id="Fill-4" fill="#8A2627" mask="url(#mask-2)"></path>
    </g>
</svg>